<?xml version="1.0" standalone="no"?>
<!DOCTYPE svg PUBLIC "-//W3C//DTD SVG 20010904//EN"
 "http://www.w3.org/TR/2001/REC-SVG-20010904/DTD/svg10.dtd">
<svg version="1.0" xmlns="http://www.w3.org/2000/svg"
 width="1630.000000pt" height="1630.000000pt" viewBox="0 0 1630.000000 1630.000000"
 preserveAspectRatio="xMidYMid meet">
<metadata>
Created by potrace 1.11, written by Peter Selinger 2001-2013
</metadata>
<g transform="translate(0.000000,1630.000000) scale(0.100000,-0.100000)"
fill="#000000" stroke="none">
<path d="M2825 9095 c-106 -20 -115 -22 -180 -45 -182 -66 -331 -174 -445
-325 -81 -108 -149 -261 -165 -375 -3 -25 -9 -53 -12 -64 -9 -33 -5 -239 7
-304 55 -304 232 -542 505 -679 72 -37 209 -81 273 -89 25 -3 50 -8 54 -10 12
-8 224 -7 283 1 205 27 406 118 529 241 l46 45 -59 57 c-33 31 -73 70 -89 85
l-29 28 -38 -35 c-129 -122 -300 -187 -494 -187 -412 -1 -724 309 -723 716 2
402 289 695 697 710 190 7 351 -43 486 -152 32 -27 59 -51 59 -55 0 -18 20 -3
102 75 l88 83 -42 44 c-98 102 -268 190 -435 226 -101 22 -325 27 -418 9z"/>
<path d="M13390 9090 c-52 -10 -108 -23 -125 -29 -234 -91 -363 -253 -370
-469 -6 -172 54 -295 191 -393 82 -59 201 -102 486 -174 101 -26 214 -59 252
-73 81 -32 169 -105 186 -157 29 -89 8 -184 -57 -249 -81 -81 -178 -111 -369
-115 -71 -1 -149 2 -174 8 -25 5 -60 12 -78 16 -92 16 -265 95 -344 157 l-37
29 -15 -23 c-33 -52 -89 -190 -80 -196 166 -115 241 -149 414 -191 393 -93
781 2 936 229 113 166 106 424 -16 557 -77 84 -221 166 -333 188 -9 2 -21 6
-25 9 -5 3 -96 27 -203 55 -231 59 -297 82 -365 129 -79 55 -111 117 -105 207
8 114 92 204 238 251 67 22 277 27 373 8 98 -18 188 -50 278 -97 41 -21 75
-37 76 -35 1 2 21 50 45 107 39 97 41 104 24 117 -48 35 -215 106 -278 117
-32 6 -69 14 -112 23 -16 3 -93 7 -173 9 -110 2 -168 -1 -240 -15z"/>
<path d="M4626 9042 c15 -26 83 -139 152 -252 69 -113 195 -320 280 -460 85
-140 162 -266 171 -280 8 -14 37 -61 63 -104 l48 -79 0 -324 0 -324 133 3 132
3 1 320 0 320 236 390 c130 215 241 395 247 402 6 7 11 14 11 17 0 2 56 97
125 210 l125 206 -135 -1 -134 -1 -63 -103 c-35 -56 -169 -276 -298 -488 -144
-236 -239 -382 -244 -377 -5 5 -26 37 -45 70 -38 64 -101 167 -310 510 -72
118 -154 254 -183 302 l-52 88 -144 -1 -143 0 27 -47z"/>
<path d="M7410 8155 l0 -935 134 0 133 0 0 688 c0 378 3 687 6 687 2 0 157
-189 342 -420 186 -231 358 -445 383 -475 24 -30 121 -151 215 -267 l171 -213
112 0 111 0 -1 933 -1 932 -132 2 c-120 2 -133 1 -134 -15 0 -9 0 -320 -1
-689 0 -370 -3 -673 -7 -673 -3 0 -17 16 -31 34 -14 19 -133 168 -265 331
-132 163 -249 309 -260 324 -11 15 -37 47 -57 72 -21 24 -99 121 -174 214 -74
94 -143 179 -153 190 -9 11 -52 64 -95 118 l-78 97 -109 0 -109 0 0 -935z"/>
<path d="M10400 8154 l0 -934 678 2 677 3 0 113 0 112 -65 1 c-36 0 -280 1
-542 1 l-478 0 0 57 c-2 219 1 535 4 539 3 2 213 4 468 4 l463 -1 0 115 c0 94
-3 114 -15 115 -8 0 -219 1 -467 1 l-453 1 0 61 c-2 249 0 499 4 503 2 3 237
5 520 5 l516 0 5 21 c2 12 4 66 3 119 l-2 97 -658 0 -658 0 0 -935z"/>
<path d="M4405 6346 c-64 -24 -110 -71 -122 -126 -16 -68 -14 -90 10 -143 35
-76 88 -110 172 -111 59 0 110 18 142 50 11 11 10 16 -8 33 l-22 20 -30 -21
c-46 -33 -119 -29 -157 7 -54 52 -61 127 -19 190 37 55 99 66 165 30 l41 -22
21 24 20 23 -26 18 c-15 10 -36 22 -47 26 -34 13 -108 14 -140 2z"/>
<path d="M6128 6352 c-16 -2 -28 -4 -28 -6 0 -1 -36 -85 -80 -186 -44 -101
-80 -185 -80 -187 0 -2 15 -3 34 -3 31 0 36 4 52 45 l17 45 91 0 91 0 18 -45
c17 -41 22 -45 53 -45 19 0 34 2 34 5 0 3 -9 24 -20 48 -10 23 -46 105 -80
182 -34 77 -64 142 -68 145 -4 3 -19 4 -34 2z m40 -159 l31 -73 -65 0 -64 0
16 38 c8 20 23 54 31 75 9 21 17 37 18 35 2 -2 17 -36 33 -75z"/>
<path d="M9003 6352 c-26 -3 -34 -10 -46 -40 -9 -20 -45 -104 -81 -187 -36
-82 -66 -151 -66 -152 0 -2 15 -3 34 -3 31 0 36 4 52 45 l17 45 91 0 91 0 18
-45 c17 -41 22 -45 54 -45 24 0 34 4 30 13 -3 6 -38 86 -77 177 -40 91 -75
172 -79 180 -4 10 -17 14 -38 12z m35 -159 l31 -73 -65 0 -64 0 16 38 c8 20
23 54 31 75 9 21 17 37 18 35 2 -2 17 -36 33 -75z"/>
<path d="M9532 6347 c-48 -15 -108 -79 -121 -131 -34 -137 60 -257 195 -251
32 2 74 13 102 27 l47 23 1 83 c1 45 -1 82 -5 83 -32 4 -135 3 -144 -3 -14 -9
-18 -41 -6 -49 6 -3 28 -5 50 -3 l39 3 0 -39 c0 -45 -17 -59 -77 -64 -55 -5
-99 20 -124 71 -28 58 -19 112 26 162 30 32 38 36 83 35 29 0 61 -8 76 -18 29
-18 40 -15 56 14 24 45 -111 84 -198 57z"/>
<path d="M11243 6338 c-104 -56 -139 -169 -83 -277 47 -94 176 -124 276 -66
l46 27 -22 23 -22 23 -33 -19 c-44 -26 -72 -31 -115 -18 -47 14 -83 66 -85
122 -5 112 89 174 187 124 41 -21 46 -21 61 -6 25 23 21 35 -19 58 -52 31
-142 35 -191 9z"/>
<path d="M4860 6161 l0 -191 30 0 c33 0 32 -1 34 80 l1 55 39 -2 c42 -2 54
-12 104 -85 30 -43 37 -48 72 -48 l39 0 -50 72 -50 73 30 14 c21 10 36 28 47
58 16 40 16 46 0 86 -23 61 -55 74 -189 76 l-107 2 0 -190z m226 104 c21 -29
17 -61 -11 -83 -20 -16 -39 -20 -87 -19 l-62 2 -1 64 -1 63 74 -4 c59 -3 77
-7 88 -23z"/>
<path d="M5430 6160 l0 -190 139 0 c124 0 139 2 143 18 10 38 0 42 -111 42
l-106 0 -1 50 0 49 95 3 95 3 1 28 2 27 -96 0 -96 0 -1 50 0 50 108 0 108 0 0
30 0 30 -140 0 -140 0 0 -190z"/>
<path d="M6490 6320 l0 -30 60 0 60 0 1 -37 c0 -21 0 -93 0 -160 l-1 -123 34
0 34 0 -2 148 c-1 81 0 153 2 160 3 8 25 12 63 12 l59 0 -2 30 -2 30 -153 0
-153 0 0 -30z"/>
<path d="M7043 6160 l0 -190 33 0 32 0 0 190 0 190 -33 0 -32 0 0 -190z"/>
<path d="M7360 6347 c0 -5 26 -70 45 -112 7 -16 29 -70 49 -119 61 -151 57
-146 93 -146 28 0 33 5 44 38 6 20 20 55 30 77 10 22 31 74 48 115 16 41 37
92 45 113 l16 37 -35 0 c-32 0 -38 -4 -51 -37 -8 -21 -19 -47 -24 -58 -4 -11
-23 -60 -41 -108 -26 -66 -36 -84 -42 -70 -4 10 -29 74 -55 143 l-48 125 -37
3 c-20 2 -37 1 -37 -1z"/>
<path d="M7970 6160 l0 -190 140 0 140 0 0 30 0 30 -108 0 -109 0 1 50 1 50
97 0 97 0 -3 28 c-3 27 -3 27 -97 32 l-94 5 -1 48 0 47 108 0 108 0 0 30 0 30
-140 0 -140 0 0 -190z"/>
<path d="M10020 6160 l0 -190 139 0 c144 0 154 3 143 43 -4 15 -18 17 -112 17
l-107 0 1 48 1 47 95 5 c93 5 95 5 94 30 0 25 -1 25 -95 28 l-96 3 1 49 1 50
107 0 108 0 0 30 0 30 -140 0 -140 0 0 -190z"/>
<path d="M10550 6160 l0 -190 29 0 c16 0 31 6 33 13 2 6 4 62 3 122 -1 61 0
114 2 118 3 4 25 -18 49 -50 25 -32 59 -76 77 -97 18 -22 43 -54 56 -73 18
-24 32 -33 53 -33 l28 0 0 190 0 190 -30 0 c-34 0 -32 8 -34 -130 0 -58 -5
-106 -9 -108 -8 -3 -58 58 -161 195 -25 34 -37 42 -63 43 l-33 0 0 -190z"/>
<path d="M11690 6344 c0 -3 31 -54 70 -112 38 -59 70 -118 71 -132 0 -14 1
-49 0 -77 l0 -53 33 0 33 0 0 74 c1 67 10 101 35 130 15 19 108 164 108 170 0
3 -16 6 -35 6 -32 0 -37 -5 -82 -80 -26 -43 -51 -79 -55 -80 -7 0 -98 140 -98
152 0 4 -18 8 -40 8 -22 0 -40 -3 -40 -6z"/>
</g>
</svg>
